<svg width="128" height="64" viewBox="0 0 128 64" fill="none" xmlns="http://www.w3.org/2000/svg">
<path fill-rule="evenodd" clip-rule="evenodd" d="M81.4917 13.3464C80.3787 12.5431 79.011 12.0853 77.5004 12.1231C73.7436 12.2052 70.1937 15.0568 70.1937 19.4884C70.1937 21.962 71.4034 24.0173 73.3134 25.1995C74.5043 26.0502 75.8858 26.3868 77.5664 26.3868C81.2662 26.3868 84.7072 23.5168 84.7887 19.8213C84.8489 17.0604 83.5796 14.6495 81.4917 13.3464ZM77.3507 25.2508C76.4568 25.2508 75.6359 25.0066 74.9245 24.5787C73.5118 23.5454 72.5347 21.7005 72.5347 19.6846C72.5347 16.4431 74.67 13.4931 77.8052 13.4931C78.6353 13.4931 79.3689 13.7098 80.0006 14.0907C81.5932 15.2699 82.4415 17.5269 82.4415 19.7139C82.4415 22.7906 80.112 25.2508 77.3507 25.2508ZM15.6755 15.9758C14.6094 14.9916 13.1845 13.901 12.4262 13.0643C12.257 12.8797 12.3133 12.5344 12.3133 12.5344L12.0151 12.3008L9.02052 12.3021L9.01812 12.8762C9.01812 12.8762 9.14036 12.9312 9.26871 13.0168C9.40339 13.0168 9.60421 12.9836 9.76879 13.0539C9.98816 13.1484 10.0017 13.5003 10.0017 13.7015C10.0017 17.2108 10.022 24.1134 10.022 24.1134C10.0427 24.5779 9.92268 25.1967 9.00589 25.2314L9 25.8061L9.37785 25.9716H13.0306L13.0424 25.4453L12.7165 25.2148C12.7165 25.2148 12.3888 25.1882 12.2417 25.1578C12.1134 24.9948 12.0651 24.8422 12.0671 24.5362V14.6344C12.4002 14.882 12.8664 15.2387 13.0271 15.391C14.6352 16.9493 16.3231 17.9777 17.3072 19.9068C17.5134 20.3168 17.5671 20.6944 17.5392 21.0836C17.4931 21.743 17.2251 22.2318 16.4698 22.2318C16.3729 22.2318 16.2749 22.2132 16.1832 22.1785C15.9879 21.972 15.8512 21.6544 15.8394 21.2292C15.8233 20.6468 15.918 20.062 16.5174 19.1653L15.7748 18.3653L15.4035 18.1975C14.6042 19.4305 14.4267 20.016 14.4095 21.0209C14.3988 21.728 14.7886 22.5683 15.5557 22.9663C15.8888 23.2485 16.3312 23.4332 16.8752 23.4397C18.0533 23.4535 18.9539 22.4402 18.9539 21.0236C18.9539 19.0082 17.3567 17.576 15.6755 15.9758ZM41.875 25.2183C41.875 25.2183 41.4514 25.2746 41.3525 25.1552C40.9301 24.692 40.533 23.949 40.2584 23.3782C39.3139 21.4099 35.618 14.1697 35.527 13.7513C35.453 13.4097 35.3368 13.0901 36.1936 13.0231L36.1962 12.5344L35.931 12.2956L31.263 12.3069C31.263 12.3069 31.2508 12.7515 31.2576 12.8882C31.3591 12.9423 31.5328 13.0102 31.5955 13.0691C31.6917 13.0657 31.9441 13.098 31.9703 13.1039C32.199 13.149 32.3392 13.3448 32.3051 13.5747C32.2302 14.1283 28.7999 20.4807 27.0131 23.8449C26.7874 24.2548 26.5514 24.8439 26.1845 25.071C25.8977 25.2351 25.1372 25.2558 25.1372 25.2558L25.1228 25.7941L25.4471 25.9716L29.319 25.9773L29.328 25.4883L29.0558 25.1945C29.0558 25.1945 28.7556 25.2288 28.672 25.2085C28.3697 25.017 28.4775 24.8509 28.5336 24.7176C28.6646 24.3879 32.7812 16.153 33.5273 14.6803C36.4444 20.3331 36.3289 20.5883 36.3289 20.5883C36.3289 20.5883 33.8927 19.6626 31.532 19.2948C31.3628 19.6311 30.9596 20.2378 30.9596 20.2378C31.0482 20.2814 31.2774 20.4019 31.2774 20.4019C33.2883 20.8551 34.4432 21.186 35.0476 21.3864C35.8288 21.6459 36.5631 21.9251 36.9563 22.0779C37.2315 22.5784 38.2481 24.46 38.2941 24.8306C38.3419 25.2351 37.5288 25.2109 37.5288 25.2109L37.5435 25.8046L37.8901 25.981L42.1451 25.9882L42.1496 25.4527L41.875 25.2183ZM100.688 25.2185C100.556 25.2085 100.354 25.2238 100.251 25.1856C100.015 24.923 99.9586 24.5381 99.9586 24.188V14.1575C99.9586 14.1575 99.8442 13.1331 100.94 13.0102C100.94 12.8685 100.951 12.5457 100.951 12.5457L100.675 12.2713L97.0011 12.2698L97.0053 12.8576C97.1059 12.9061 97.2559 13.0102 97.2559 13.0102C97.3851 12.9962 97.6051 13.0377 97.7029 13.0844C97.8906 13.2654 97.9393 13.5188 97.9393 13.8344V23.9269C97.9393 23.9269 98.0432 25.2694 97.0081 25.2812L97.0029 25.8046L97.3364 25.9716H100.963L100.96 25.4984L100.688 25.2185ZM95.2243 22.7585C94.9344 22.5699 94.6915 22.4695 94.3165 22.4557C93.9391 22.4437 93.4612 22.6904 93.4558 23.078C93.4503 23.3823 93.6701 23.5126 93.6701 23.5126L94.0233 23.691C94.0233 23.691 94.1436 23.3175 94.4101 23.292C94.753 23.2599 94.8705 23.5797 94.8705 23.8669C94.8705 24.2991 94.6454 24.7023 93.9897 24.7023C93.0888 24.7023 90.2261 24.7315 88.8201 24.7143V13.7661C88.8201 13.273 89.1069 13.0325 89.9266 13.0102V12.5344L89.6653 12.2986L85.621 12.3021L85.6203 12.8694C85.683 12.8882 85.9447 13.0231 85.9447 13.0231C86.0981 13.0318 86.3105 13.0192 86.4954 13.0657C86.5707 13.1789 86.6091 13.2997 86.6091 13.5254V22.8587C86.6091 22.8587 86.7353 24.7038 86.3186 25.0066C86.0772 25.1827 85.5747 25.2183 85.5747 25.2183L85.5677 25.8011L85.9036 25.9716C85.9036 25.9716 91.4862 25.9509 94.2761 25.9509C95.3029 25.9509 96.0804 25.2746 96.0804 24.2068C96.0804 23.6157 95.6934 23.0815 95.2243 22.7585ZM118.999 25.4527L118.724 25.2133C118.724 25.2133 118.437 25.2923 118.2 25.1808C117.775 24.7176 117.406 23.995 117.127 23.424C116.185 21.4558 112.49 14.1819 112.369 13.7687C112.231 13.2977 112.426 13.0547 113.036 13.0168L113.043 12.5344L112.775 12.2986L108.11 12.2971L108.106 12.8945C108.106 12.8945 108.357 12.9862 108.442 13.0412C108.612 13.0412 108.832 13.086 109.032 13.1654C109.125 13.273 109.177 13.4077 109.154 13.5747C109.078 14.1283 105.647 20.4807 103.863 23.8449C103.636 24.2548 103.4 24.8439 103.032 25.071C102.744 25.2351 101.962 25.2093 101.962 25.2093L101.957 25.7867L102.296 25.9716H106.173L106.175 25.4883L105.899 25.2067C105.899 25.2067 105.566 25.2663 105.485 25.2456C105.17 25.0541 105.33 24.8439 105.389 24.7176C105.528 24.3908 109.693 16.1083 110.442 14.6364C113.357 20.2893 113.178 20.5883 113.178 20.5883C113.178 20.5883 110.745 19.6451 108.386 19.2762C108.216 19.6143 107.88 20.2572 107.88 20.2572C107.997 20.3203 108.125 20.4019 108.125 20.4019C110.135 20.8551 111.292 21.186 111.895 21.3864C112.66 21.6391 113.317 21.8952 113.675 22.0388C113.994 22.5463 115.236 24.5303 115.281 24.9007C115.33 25.3058 114.507 25.2109 114.507 25.2109L114.486 25.8125L114.853 25.9716L119 25.9594L118.999 25.4527ZM26.6785 21.6459C26.8795 21.8766 27.1654 21.9602 27.4147 21.9104C27.6705 21.8598 27.7354 21.6044 27.7354 21.6044C27.7354 21.6044 27.6345 21.588 27.4586 21.4442C27.4704 21.4184 27.3361 21.42 27.2929 21.4084C27.2233 21.3145 27.1737 21.1842 27.1683 21.0085C27.1547 20.2687 27.6553 19.8979 28.5507 19.9662C28.6753 19.9752 28.8667 20.0313 28.8667 20.0313L29.379 19.0555L29.2169 18.9379C29.2169 18.9379 28.2719 18.7964 27.9934 18.791C27.0401 18.7724 26.2751 19.3116 26.0404 20.3113C25.9437 20.7354 26.1432 21.1914 26.2886 21.373C26.3982 21.5108 26.5346 21.5994 26.6785 21.6459ZM103.464 21.6957C103.617 21.8122 104.012 21.9602 104.263 21.9104C104.519 21.8598 104.552 21.7085 104.552 21.7085L104.308 21.451C104.308 21.451 104.195 21.4265 104.07 21.3287C103.943 21.2312 103.849 20.9924 103.855 20.8396C103.869 20.4947 103.981 20.3406 104.173 20.1605C104.391 19.9568 104.84 19.8977 105.311 19.9771C105.447 20.0003 105.629 20.0749 105.629 20.0749L106.185 19.0817L106.062 18.9379C106.062 18.9379 105.118 18.7892 104.839 18.791C104.045 18.7969 103.169 19.2769 102.938 20.2766C102.838 20.7007 102.991 21.1914 103.139 21.373C103.245 21.5108 103.311 21.58 103.464 21.6957ZM54.5555 18.9887L49.7188 18.987C48.7516 18.987 47.7846 19.5975 47.7846 20.6837C47.7846 21.265 48.1074 21.8268 48.6029 22.0373C48.8125 22.239 49.0829 22.3671 49.392 22.3671C49.611 22.3671 49.8799 22.2494 50.0021 22.0951C50.2398 21.8017 50.0021 21.5383 50.0021 21.5383L49.7002 21.2873C49.7002 21.2873 49.5937 21.4852 49.4449 21.516C49.3479 21.5365 49.1641 21.5212 49.0508 21.4955C48.9817 21.3931 48.9358 21.2543 48.9341 21.0736C48.9275 20.6837 49.3567 20.2653 49.7301 20.2653C50.2531 20.2653 51.9348 20.2849 52.6558 20.2912C52.6486 20.8073 52.5298 21.996 52.4897 22.1591C52.3019 22.92 52.097 23.8735 51.3825 24.2428C50.3968 24.7486 49.1347 25.1773 48.0544 25.0971C47.0996 25.0269 46.1938 24.6481 45.5928 24.123C44.2004 23.0844 43.6006 21.0989 43.6006 18.9466C43.6006 16.0747 45.6147 13.4485 48.7038 13.3566C50.0176 13.3169 51.1483 13.7648 51.9837 14.2771C52.6588 14.7674 53.1526 15.3175 53.2159 15.675C53.2949 16.1273 53.0899 16.389 53.0899 16.389L53.3115 16.5547L54.1028 16.5582L54.098 12.5407L53.8343 12.2663L53.1952 12.2713L53.2227 13.6812C53.2227 13.6812 52.5632 13.1045 51.9599 12.7941C51.2258 12.4163 49.7952 12 48.432 12C44.4442 12 41.1187 14.9005 41.1187 19.1053C41.1187 21.5143 42.3192 23.768 44.3608 25.0338C45.4819 25.8332 46.6676 26.3184 48.2921 26.3324C49.1257 26.3372 50.0704 26.2246 50.8665 25.9493C52.0712 25.5324 52.6881 24.9452 53.2194 24.1998C53.981 23.1354 54.2698 21.738 54.2591 20.2875C54.2591 20.2856 54.3315 19.7525 54.8067 19.7615L54.8222 19.2282L54.5555 18.9887ZM24.0951 12.2945L20.9992 12.3159C20.9992 12.3159 21.023 12.6424 20.8062 12.8511C20.7054 12.948 20.4987 13.1207 20.314 13.2577C19.4871 13.8707 18.3132 14.7776 17.4504 15.6593C17.2456 15.8667 16.6951 16.5071 16.6951 16.5071L17.7354 17.6099C17.7354 17.6099 18.279 17.067 18.5695 16.7614C18.9262 16.3855 19.5808 15.7656 20.4801 15.0389C20.6504 14.9005 20.8968 14.7285 21.1013 14.5952V24.1134C21.1035 24.9007 20.5412 25.2043 20.1197 25.2434C20.121 25.4953 20.0835 25.8061 20.0835 25.8061L20.4801 25.9716H24.2525C24.2525 25.8714 24.2553 25.4527 24.2553 25.4527L23.9176 25.2004C23.9176 25.2004 23.6184 25.2133 23.4627 25.1722C23.3444 25.017 23.2663 24.7741 23.2663 24.3934L23.2866 14.8119C23.2866 14.197 23.1552 13.2014 24.407 13.0168L24.4133 12.5457L24.0951 12.2945ZM69.0878 25.2004C69.0878 25.2004 68.858 25.1808 68.6884 25.1105C68.4777 24.8688 68.4531 24.4936 68.4291 24.0223C68.3896 23.2367 68.4083 14.3815 68.4083 14.3815C68.4083 13.418 68.5212 13.0718 69.3015 13.0102C69.3015 12.7044 69.3122 12.5344 69.3122 12.5344L69.0529 12.2956L65.7049 12.2986L65.687 12.8576C65.7682 12.8847 65.938 13.0168 65.938 13.0168C66.0592 13.0237 66.1517 12.9921 66.3781 13.0962C66.6385 13.3918 66.6937 13.7301 66.6937 14.1811L66.6896 21.6341C65.7418 20.3253 63.0041 16.7389 59.5406 13.879C59.0471 13.4738 59.0554 12.7921 59.0554 12.5344C59.0554 12.5344 58.8827 12.3569 58.7891 12.2986C58.7273 12.2986 56.0739 12.2956 56.0739 12.2956C56.0739 12.2956 56.0846 12.4348 56.0846 12.8633C56.1845 12.895 56.3107 12.9676 56.4142 13.0283C56.5956 13.0109 56.7436 13.0268 56.8664 13.0611C57.1314 13.4027 57.074 13.9661 57.0994 14.245C57.0994 14.245 57.1146 22.4489 57.0994 24.2548C57.093 25.2956 56.1767 25.2288 56.1767 25.2288L56.1636 25.8125L56.4923 25.9688H60.2326L60.2254 25.4527L59.9612 25.222C59.9612 25.222 59.626 25.2085 59.3684 25.102C59.2298 24.9581 59.122 24.7588 59.0969 24.474V15.2611C59.6891 15.7824 60.9241 16.845 62.1973 18.2204C64.3647 20.5612 66.6592 23.5626 66.6592 24.5486C66.6592 24.6099 66.6258 24.8612 66.3953 25.0323C66.167 25.2028 65.7739 25.2085 65.7739 25.2085L65.7778 25.8109L66.1192 25.9716H69.3655L69.3686 25.4527L69.0878 25.2004Z" fill="#7C3A00"/>
<path fill-rule="evenodd" clip-rule="evenodd" d="M31.2789 12.8335C31.2743 12.6949 31.2789 12.3203 31.2789 12.3203H35.8905L35.8873 12.847C35.2754 12.8846 35.1403 13.2089 35.17 13.5305C35.2056 13.9605 39.0157 21.3314 39.963 23.3027C40.2693 23.9421 40.5873 24.6491 41.0841 25.1101C41.2505 25.2623 41.8678 25.2485 41.8678 25.2485L41.8614 25.8117L37.584 25.8047L37.589 25.2714C37.589 25.2714 38.4047 25.2972 38.3552 24.8892C38.3034 24.4596 36.9455 22.0042 36.9455 22.0042C36.9455 22.0042 35.8905 21.5759 34.7404 21.1937C34.1358 20.9938 33.0055 20.6681 30.9897 20.2141C30.9897 20.2141 31.2981 19.6398 31.4692 19.3005C33.8341 19.6712 36.3871 20.636 36.3871 20.636C36.3871 20.636 36.5137 20.6423 33.341 14.5005C33.341 14.5005 28.3836 24.247 28.3172 24.6321C28.2552 24.994 28.3515 25.1998 29.009 25.2422C29.009 25.2832 29.0149 25.7944 29.0149 25.7944L25.1185 25.7903L25.1227 25.2422C25.1227 25.2422 25.9443 25.2533 26.2318 25.0892C26.6022 24.8626 26.8242 24.314 27.0499 23.9024C28.8391 20.5273 32.2758 14.1598 32.3552 13.6027C32.4301 13.0459 31.6886 12.8368 31.2789 12.8335ZM28.6591 19.8681C28.6591 19.8681 28.324 19.8166 28.2018 19.8059C27.3011 19.7393 26.831 20.0754 26.8449 20.8154C26.8563 21.4098 27.4011 21.4746 27.4011 21.4746C27.4011 21.4746 27.3478 21.6685 27.0911 21.72C26.8288 21.7737 26.5243 21.6803 26.3239 21.4236C26.1781 21.2387 25.9764 20.7827 26.0735 20.3581C26.3097 19.3579 27.077 18.816 28.033 18.8319C28.3098 18.8397 29.1373 18.9668 29.1373 18.9668L28.6591 19.8681Z" fill="#7C3A00"/>
<path fill-rule="evenodd" clip-rule="evenodd" d="M108.128 12.8335C108.123 12.6949 108.128 12.3203 108.128 12.3203H112.739L112.742 12.8341C112.131 12.8723 111.989 13.2089 112.016 13.5305C112.054 13.9605 115.866 21.3314 116.809 23.3027C117.118 23.9421 117.489 24.7006 117.987 25.1612C118.153 25.3142 118.718 25.273 118.718 25.273V25.8121L114.519 25.8064L114.541 25.2714C114.541 25.2714 115.356 25.2972 115.307 24.8892C115.256 24.4596 113.653 21.9662 113.653 21.9662C113.653 21.9662 112.741 21.5759 111.586 21.1937C110.982 20.9938 109.929 20.6882 107.914 20.2363C107.914 20.2363 108.223 19.6609 108.393 19.3217C110.758 19.693 113.234 20.636 113.234 20.636C113.234 20.636 113.363 20.6423 110.19 14.5005C110.19 14.5005 105.232 24.247 105.164 24.6321C105.103 24.994 105.2 25.2121 105.858 25.2546C105.858 25.2957 105.852 25.7733 105.852 25.7733H101.966V25.2734C101.966 25.2734 102.777 25.295 103.065 25.1311C103.436 24.9052 103.671 24.314 103.898 23.9024C105.688 20.5273 109.126 14.1598 109.203 13.6027C109.278 13.0459 108.537 12.8368 108.128 12.8335ZM105.508 19.8681C105.508 19.8681 105.172 19.8166 105.049 19.8059C104.15 19.7393 103.677 20.0754 103.693 20.8154C103.705 21.4098 104.239 21.5063 104.239 21.5063C104.239 21.5063 104.194 21.6685 103.941 21.72C103.232 21.8603 102.92 21.1116 102.912 20.5434C102.895 19.4754 103.897 18.814 104.878 18.8319C105.158 18.8397 105.984 18.9668 105.984 18.9668L105.508 19.8681Z" fill="#7C3A00"/>
<path fill-rule="evenodd" clip-rule="evenodd" d="M65.8169 25.7934V25.2704C65.8169 25.2704 66.2286 25.2645 66.4574 25.0912C66.6894 24.9201 66.7213 24.6684 66.7213 24.6066C66.7213 23.6178 64.4213 20.6075 62.2476 18.2627C60.5256 16.402 58.7769 14.952 58.7769 14.952V24.291C58.8599 25.2593 59.9054 25.2604 59.9054 25.2604L59.9157 25.7901H56.165L56.1632 25.2704C56.1632 25.2704 57.1269 25.2355 57.1348 24.3132C57.1512 22.5006 57.1348 14.274 57.1348 14.274C57.1269 13.9442 57.2147 13.2987 56.7895 12.9813C56.6378 12.8683 56.4042 12.8198 56.0962 12.8148V12.3193H58.7337C58.7337 12.5764 58.7267 13.2594 59.222 13.6676C63.5518 17.2426 66.7519 21.9525 66.7519 21.9525L66.7571 14.2109C66.7571 13.4926 66.5781 12.8626 65.7331 12.8218V12.3193L69.0266 12.3188C69.0266 12.3188 69.0329 12.507 69.0329 12.8157C68.2495 12.8772 68.1137 13.2031 68.1137 14.1712C68.1137 14.1712 68.0965 23.0489 68.136 23.8389C68.1598 24.3344 68.1796 24.7227 68.4252 24.9659C68.6446 25.1857 69.0757 25.2481 69.0757 25.2481L69.075 25.7934H65.8169Z" fill="#7C3A00"/>
<path fill-rule="evenodd" clip-rule="evenodd" d="M77.3812 26.2099C73.2956 26.2099 70.2266 23.3297 70.2266 19.3809C70.2266 14.9378 73.8007 12.1999 77.568 12.1176C81.6362 12.0135 84.6301 15.3704 84.5758 19.5243C84.5221 23.5759 81.0933 26.2099 77.3812 26.2099ZM77.568 13.2417C74.4233 13.2417 72.2992 16.1316 72.2992 19.3809C72.2992 22.5257 74.4621 25.1617 77.4006 25.1617C80.1684 25.1617 82.5045 22.6918 82.5045 19.6086C82.5045 16.4398 80.8074 13.2417 77.568 13.2417Z" fill="#7C3A00"/>
<path fill-rule="evenodd" clip-rule="evenodd" d="M93.9788 25.7732C91.1787 25.7732 85.5747 25.7935 85.5747 25.7935V25.2713C85.5747 25.2713 86.1104 25.2425 86.3533 25.0653C86.77 24.7627 86.6449 22.9137 86.6449 22.9137V13.5544C86.6449 12.6893 85.9908 12.8454 85.6205 12.8282L85.6144 12.3193H89.6134L89.6107 12.8343C88.7845 12.8546 88.5021 13.0593 88.5021 13.5544V24.733C89.7144 24.7745 93.031 24.733 94.0194 24.733C94.6771 24.733 94.936 24.3565 94.936 23.925C94.936 23.4502 94.686 23.0756 94.1154 23.1263C93.8441 23.1503 93.7232 23.5061 93.7232 23.5061C93.7232 23.5061 93.4802 23.4205 93.4837 23.116C93.4909 22.7255 94.0035 22.4957 94.3807 22.5098C95.247 22.5406 95.7897 23.243 95.7897 24.0238C95.7897 25.0945 95.0065 25.7732 93.9788 25.7732Z" fill="#7C3A00"/>
<path fill-rule="evenodd" clip-rule="evenodd" d="M99.6566 13.945V24.0028C99.6566 24.5793 99.8105 25.1942 100.669 25.2595L100.674 25.7936H97.0065L97.0137 25.2765C98.0592 25.2647 97.9796 23.9825 97.9796 23.9825V13.8627C97.9796 13.2668 97.8148 12.8469 96.9993 12.81L97.0004 12.2939H100.651C100.651 12.2939 100.652 12.681 100.639 12.822C99.6317 12.9678 99.6566 13.945 99.6566 13.945Z" fill="#7C3A00"/>
<path fill-rule="evenodd" clip-rule="evenodd" d="M53.7862 41.5317C53.7862 41.5317 53.4321 41.6675 53.1798 41.4455C52.7115 41.0234 52.445 40.5193 52.1602 39.9282C51.2174 37.963 47.5005 30.6344 47.3276 30.2409C47.1574 29.8525 47.4261 29.5421 48.0344 29.5063L48.0373 29.0451L47.8428 28.8039L43.199 28.8644C43.199 28.8644 43.1752 29.2518 43.1798 29.3887C43.2536 29.402 43.4789 29.5057 43.4806 29.5435C43.6631 29.5435 43.8775 29.5982 44.0909 29.696C44.2106 29.8102 44.2819 29.9586 44.2553 30.1485C44.1796 30.7021 40.7578 37.0353 38.9785 40.3908C38.7533 40.8007 38.8002 41.2951 38.4333 41.5186C38.1484 41.6828 37.0644 41.6605 37.0644 41.6605L37.0548 42.1645L37.3279 42.3302H41.1945L41.1996 41.8688L40.997 41.5442C40.997 41.5442 40.6787 41.5686 40.5812 41.5378C40.2941 41.3792 40.376 41.2929 40.4205 41.1441C40.5214 40.8027 44.8132 32.4621 45.4694 31.1725C48.4509 36.9399 48.3941 37.2235 48.3941 37.2235C48.3941 37.2235 45.8265 36.1792 43.4719 35.8121C43.3047 36.15 42.9851 36.7383 42.9851 36.7383C43.0349 36.8133 43.1342 36.89 43.1342 36.89C45.1383 37.3416 46.2899 37.6714 46.8913 37.8709C47.7572 38.1545 48.7552 38.5851 49.1957 38.7766C49.3836 39.1575 50.2939 40.8954 50.3417 41.2798C50.3899 41.6843 49.5764 41.6605 49.5764 41.6605L49.5844 42.1578L49.8483 42.3302L53.9761 42.3086V41.8129L53.7862 41.5317ZM35.0715 34.0462C34.8543 33.8873 34.6131 33.7493 34.3503 33.629C35.0355 33.1471 35.5943 32.1875 35.5943 31.5348C35.5943 30.5264 35.1501 29.9102 34.497 29.5378C33.7555 28.9772 32.6298 28.8402 31.5897 28.8402H24.964L24.9757 29.4029L25.2239 29.5391C25.2239 29.5391 25.4256 29.5238 25.6317 29.5801C25.8672 29.867 25.9205 30.429 25.9205 30.8342V40.5558C25.9205 41.165 25.7172 41.4132 24.9622 41.5909C24.9554 41.6858 24.964 42.141 24.964 42.141L25.2268 42.3134L32.7479 42.332C35.5325 41.8664 37.0991 40.0566 37.0991 37.7792C37.0991 36.4207 36.4875 34.9023 35.0715 34.0462ZM27.9263 30.1114H31.8115C32.1238 30.1114 32.5292 30.1832 32.8725 30.3622C33.1336 30.5746 33.3178 30.8787 33.3178 31.3026C33.3178 32.7254 31.9344 33.0085 30.8172 33.2955C30.1235 33.4634 28.9657 33.7711 27.9263 34.2324V30.1114ZM31.1232 41.0646H27.9055V35.8651C27.9055 35.3995 30.0619 34.8905 30.5712 34.8082C30.8364 34.7687 31.3227 34.748 31.4666 34.748C32.0642 34.748 32.9662 34.9058 33.7166 35.35C34.1982 35.6999 34.5823 36.1882 34.726 36.8581C34.7642 37.0347 34.8441 37.5771 34.8441 37.7207C34.8441 40.0806 33.0144 41.0646 31.1232 41.0646ZM93.0078 39.317C92.9207 39.1714 92.8159 39.0365 92.6847 38.9239C92.438 38.715 92.1665 38.5707 91.8476 38.5131C91.6081 38.4725 91.3525 38.4745 91.1109 38.505C89.9907 38.6506 90.0158 39.5936 90.2284 39.9317C90.3067 40.0548 90.7741 40.1177 90.7607 40.0806C90.6994 39.9095 90.9437 39.5098 91.1742 39.4683C91.3193 39.443 91.759 39.4039 91.9932 39.713C92.2715 40.1177 92.1687 40.9384 91.9932 41.2002C91.6219 41.7496 90.1336 41.3979 89.6226 41.2266C89.4845 41.1796 89.3467 41.1174 89.2109 41.0402C87.3745 39.7145 85.9278 35.5338 85.9278 35.5338C85.9278 35.5338 86.9098 35.5235 87.4243 35.4816C89.0968 35.3478 90.606 33.7589 90.5213 31.8544C90.4717 30.6958 89.8848 29.9202 89.1603 29.5046C88.354 28.9052 87.2687 28.8402 85.9867 28.8402L79.9977 28.8216C79.9977 28.9414 79.9818 29.38 79.9818 29.38L80.2524 29.5391C80.2524 29.5391 80.5897 29.5046 80.84 29.5749C80.9507 29.7377 80.9267 29.8652 80.9267 29.8652L80.9337 31.078L80.9579 40.871C80.9579 40.871 80.9642 41.3979 80.703 41.5396C80.4725 41.6655 80.0361 41.556 80.0361 41.556L80.0195 42.1835L80.2812 42.3549L83.9017 42.3632L83.9043 41.7629L83.6995 41.5193C83.6995 41.5193 83.3256 41.5673 83.07 41.4767C82.9962 41.3905 82.9722 41.3311 82.9722 41.1753V37.33C82.9722 37.2082 82.9153 35.6999 82.9153 35.6999L84.0925 35.7189C84.393 36.3464 85.4528 38.7093 85.6931 39.061C86.3667 40.0468 87.0046 41.1257 88.0892 41.9166C88.3948 42.1394 88.7543 42.311 89.1123 42.4374C89.4644 42.5609 89.8459 42.6317 90.2161 42.6664C90.8254 42.7229 91.4693 42.6827 92.0342 42.4319C92.7731 42.1028 93.3123 41.3743 93.3151 40.554C93.3157 40.2971 93.2876 39.9902 93.2022 39.7471C93.1501 39.5969 93.0876 39.45 93.0078 39.317ZM82.9587 34.0204L82.9722 30.1525H85.8815C86.7804 30.1525 87.4669 30.2821 87.9488 30.5493C88.3162 30.8444 88.6541 31.3807 88.6541 31.9225C88.6541 33.6498 88.2413 33.9436 85.768 34.0682C85.0014 34.1077 83.5513 34.0562 82.9587 34.0204ZM66.3775 39.6351C66.0255 39.3895 65.9026 39.4089 65.5771 39.4089C65.3317 39.4089 64.926 39.6486 64.8701 40.0452C64.816 40.4303 65.4145 40.6462 65.4145 40.6462C65.4145 40.6462 65.4389 40.4255 65.445 40.4061C65.485 40.2659 65.6103 40.1524 65.7622 40.1533C66.0316 40.1548 66.0519 40.4687 66.0571 40.6682C66.0628 40.871 65.8604 41.3366 65.2307 41.3366C65.0449 41.3366 64.6549 41.2253 64.2017 40.9533C63.9677 40.7883 63.7256 40.5809 63.4912 40.3251C61.5422 38.1959 59.4152 34.5347 59.4152 34.5347C59.4152 34.5347 60.2541 33.182 61.9947 31.6885C62.5249 31.2358 63.3548 30.5493 63.7507 30.2976C64.671 29.7131 65.1056 29.574 66.127 29.5315L66.1278 29.013L65.9375 28.7976L61.6343 28.8028C61.5734 28.8216 61.6465 29.0115 61.6465 29.0506C61.729 29.0506 61.8665 28.9654 61.9383 29.0233C61.9453 29.0604 62.1256 29.271 62.1459 29.2741C62.1883 29.3612 61.9316 29.4878 61.8194 29.6345C60.3054 30.8086 58.7388 32.2351 57.5445 33.9045L57.5262 30.1114C57.552 29.6598 57.7416 29.5251 58.4268 29.5315L58.4209 29.013L58.226 28.7686L54.7173 28.8166L54.72 29.3784L54.9527 29.5435C54.9527 29.5435 55.2329 29.4974 55.4416 29.5865C55.6315 29.7021 55.5761 29.8346 55.5761 30.0328L55.5798 40.759C55.5798 41.6538 54.553 41.6046 54.553 41.6046L54.5425 42.141L54.8042 42.3134H58.6036L58.5967 41.7629L58.4024 41.5186C58.4024 41.5186 58.0536 41.6007 57.7886 41.4881C57.6694 41.3717 57.5869 41.2095 57.5869 40.9725L57.5616 36.785C57.5616 36.6464 58.1356 35.9542 58.3747 35.6846C59.6477 37.6323 61.0283 39.7868 62.3302 41.1281C62.6499 41.4536 62.9335 41.7072 63.2771 41.9105C63.9059 42.3549 64.5889 42.5225 65.3014 42.5225C66.1959 42.5225 66.9285 41.8434 66.9588 40.9631C66.9721 40.5733 66.8427 39.9597 66.3775 39.6351ZM103.096 28.7908L99.3253 28.8626L99.3272 29.3841L99.6173 29.5288C99.6173 29.5288 99.8662 29.471 100.147 29.5921C100.316 29.7545 100.438 30.0294 100.383 30.4275C100.302 31.0238 99.9493 32.2401 99.2932 33.2292C98.6903 34.1435 97.7969 34.839 97.2878 35.2247C96.5804 33.9833 95.8384 32.5756 95.1343 31.4323C95.0135 31.231 94.4015 30.207 94.3417 29.9067C94.3096 29.7495 94.3033 29.6282 94.4054 29.5775C94.5803 29.4917 94.9256 29.5509 94.9256 29.5509C94.9256 29.5509 94.9299 29.0929 94.9299 29.0333L94.7355 28.7941L91.1561 28.8626L91.163 29.3928L91.4721 29.5339C91.5968 29.5428 91.7738 29.4974 91.9598 29.6271C92.6295 30.4832 96.151 36.6566 96.151 36.6566C96.151 36.6566 96.1185 39.219 96.1185 40.663C96.1185 41.7393 95.2624 41.5909 94.9376 41.5909C94.9376 41.714 94.9188 42.1375 94.9188 42.1375L95.1818 42.3099L99.3582 42.3031L99.3543 41.7629L99.1613 41.5263C99.0382 41.5156 98.7014 41.5813 98.4646 41.4881C98.3565 41.3757 98.2847 41.2185 98.2847 40.9913L98.2642 36.9849C98.2642 36.8432 98.276 36.6841 98.2954 36.6638C99.7184 35.2035 100.008 34.7949 100.731 33.6498C101.401 32.6129 101.772 31.3126 102.095 30.429C102.441 29.483 103.284 29.5253 103.284 29.5253L103.291 29.0333L103.096 28.7908ZM78.0997 39.1278C78.0253 39.0713 77.9766 39.0623 77.8895 39.0178C77.8804 39.0112 77.728 38.9761 77.7177 38.9689C77.3506 38.6993 77.0507 38.7039 76.6239 38.9767C76.465 39.0795 76.355 39.1898 76.3419 39.3725C76.3419 39.3895 76.4089 39.6848 76.47 39.7457C76.5314 39.8066 76.6837 39.8802 76.6837 39.8802C76.6837 39.8802 76.7898 39.761 76.8062 39.7475C77.0321 39.5517 77.4211 39.5936 77.5409 39.8878C77.58 39.9839 77.5992 40.1033 77.5979 40.2074C77.582 40.8195 77.1094 41.0578 76.5803 41.0578C75.3747 41.0578 72.1662 41.1759 70.906 41.0513V35.1551H74.769C74.769 35.1551 75.3406 35.114 75.7194 35.2546C75.7621 35.3074 75.787 35.3707 75.787 35.446C75.7886 35.5685 75.787 35.8981 75.787 35.8981L76.0477 36.0712H76.5552C76.5552 36.0712 76.5739 33.5465 76.5925 33.4645L76.4155 33.1853L76.0357 33.1827C76.0357 33.1827 75.9104 33.5389 75.5746 33.6893C75.2636 33.8294 74.6917 33.8091 74.1176 33.7912C73.9823 33.7912 71.7244 33.7729 70.9455 33.7679V30.1874C72.3679 30.1874 76.6567 30.0503 77.1264 30.221C77.1657 30.2675 77.2284 30.3491 77.2406 30.4111C77.293 30.6429 77.2803 31.3986 77.2803 31.3986L77.6016 31.5641L78.0997 31.5687L78.1235 29.0248L77.9258 28.7847C77.9258 28.7847 76.9913 28.8035 76.4827 28.8035L67.9394 28.8759L67.9378 29.4642L68.1703 29.5801C68.2497 29.5677 68.5444 29.593 68.6298 29.6334C68.783 29.7072 68.8581 29.9554 68.8965 30.1053C68.9417 30.2813 68.9583 30.464 68.9583 30.6447V40.3253C68.9583 40.6309 68.9426 41.1467 68.7016 41.4208C68.4266 41.7345 67.9328 41.6444 67.9328 41.6444L67.9394 42.196L68.203 42.3684H76.945C77.9926 42.3684 78.6212 41.7655 78.7175 40.7263C78.7664 40.2074 78.5324 39.448 78.0997 39.1278ZM38.5747 38.2047C38.7849 38.3276 39.0508 38.4393 39.2817 38.3939C39.5378 38.3424 39.5891 38.1479 39.5891 38.1479L39.3946 37.9174C39.3946 37.9174 39.2889 37.9576 39.1375 37.8371C38.9908 37.7207 38.9041 37.5319 38.8991 37.3237C38.8851 36.5857 39.5476 36.3755 40.3867 36.4909C40.5087 36.5069 40.7523 36.6016 40.7523 36.6016L41.2786 35.6193L41.1415 35.4222C41.1415 35.4222 40.2332 35.3563 39.9543 35.3509C39.0052 35.3323 38.2423 35.8721 38.0107 36.8679C37.9094 37.2881 38.1124 37.7445 38.2549 37.9255C38.3501 38.0473 38.3647 38.08 38.5747 38.2047Z" fill="#7C3A00"/>
<path fill-rule="evenodd" clip-rule="evenodd" d="M43.2112 29.3336C43.2075 29.1967 43.2112 28.8213 43.2112 28.8213H47.8102L47.8039 29.3423C47.1962 29.3807 47.0624 29.7088 47.0916 30.0308C47.1277 30.4591 50.9253 37.8067 51.8685 39.7764C52.1774 40.4112 52.4795 41.0324 53.0136 41.4465C53.2171 41.6024 53.7746 41.5794 53.7746 41.5794L53.7787 42.1317L49.6307 42.1433L49.6248 41.5794C49.6248 41.5794 50.4331 41.622 50.3818 41.2616C50.32 40.836 49.1978 38.6811 49.1978 38.6811C49.1978 38.6811 47.8102 38.052 46.6634 37.6715C46.0583 37.4731 45.0398 37.1629 43.0301 36.7124C43.0301 36.7124 43.3374 36.1401 43.5079 35.8026C45.8651 36.1709 48.4299 37.1957 48.4299 37.1957C48.4299 37.1957 48.4325 37.1206 45.2679 30.9952C45.2679 30.9952 40.326 40.7168 40.257 41.0999C40.1957 41.4616 40.3007 41.5426 40.9562 41.5856C40.9562 41.6268 40.9503 42.1452 40.9503 42.1452H37.0764L37.0821 41.603C37.0821 41.603 37.8871 41.6257 38.1728 41.4629C38.5433 41.2387 38.769 40.7816 38.9938 40.3706C40.778 37.0064 44.2081 30.6564 44.2832 30.1013C44.3581 29.5458 43.6205 29.3364 43.2112 29.3336ZM40.5993 36.3492C40.5993 36.3492 40.266 36.2972 40.1431 36.2876C39.2457 36.2224 38.7052 36.5103 38.7188 37.2489C38.7306 37.8418 39.3413 37.9509 39.3413 37.9509C39.3413 37.9509 39.2915 38.147 39.0346 38.1963C38.7725 38.2489 38.4712 38.1553 38.2695 37.9018C38.1233 37.7161 37.9399 37.2981 38.0227 36.8379C38.203 35.8297 39.0211 35.2995 39.9728 35.3176C40.252 35.3237 41.0738 35.4516 41.0738 35.4516L40.5993 36.3492Z" fill="#7C3A00"/>
<path fill-rule="evenodd" clip-rule="evenodd" d="M32.5186 42.1453L24.9756 42.1265C24.9756 42.1265 24.9658 41.6716 24.9726 41.5751C25.7318 41.3966 25.9339 41.1482 25.9339 40.5374V30.7866C25.9339 30.278 25.8798 29.534 25.4476 29.3915C25.2284 29.3177 24.9815 29.3483 24.9815 29.3483L24.9756 28.791H31.6226C33.3754 28.791 35.3757 29.1763 35.3757 31.3176C35.3757 31.9893 34.7844 32.9919 34.0697 33.4592C36.0484 34.1741 36.886 35.9884 36.886 37.5799C36.886 39.8636 35.3133 41.6775 32.5186 42.1453ZM34.7676 36.8277C34.3891 35.0529 32.3163 34.5401 31.2349 34.5401C31.0908 34.5401 30.6023 34.5615 30.3367 34.6026C29.8257 34.6842 27.6644 35.1913 27.6644 35.6632V41.0462H31.1526C33.0497 41.0462 34.8854 40.0607 34.8854 37.693C34.8854 37.5509 34.8049 37.0058 34.7676 36.8277ZM31.5809 29.8892H27.6852V34.3164C28.786 33.7871 30.0922 33.4411 30.8459 33.2551C31.969 32.97 33.3568 32.6854 33.3568 31.2561C33.3568 30.2164 32.2551 29.8892 31.5809 29.8892Z" fill="#7C3A00"/>
<path fill-rule="evenodd" clip-rule="evenodd" d="M90.3117 42.5491C89.6623 42.5147 88.7765 42.3093 88.1304 41.9015C87.4417 41.4676 86.9054 40.7918 86.4394 40.1367C86.1859 39.7794 85.9685 39.3987 85.7217 39.0372C85.439 38.6222 84.0625 35.5547 84.0625 35.5547L82.7177 35.5333C82.7177 35.5333 82.7277 37.0054 82.7277 37.1307V40.9849C82.7277 41.6773 83.6663 41.5743 83.6663 41.5743V42.1667H80.0295L80.0356 41.5784C80.0356 41.5784 80.4931 41.6046 80.7223 41.4804C80.9873 41.3379 80.9703 40.8548 80.9703 40.8548L80.9465 31.0321C80.9465 31.0321 80.9478 29.8255 80.9465 29.7401C80.9465 29.6563 80.9 29.5173 80.7547 29.4247C80.5248 29.2638 80.0005 29.3171 80.0005 29.3171C80.0005 29.3171 80.0088 28.8901 80.0088 28.7686L86.0146 28.7906C88.216 28.7906 90.2453 29.3645 90.2993 31.6381C90.3591 34.0846 88.7641 35.2649 87.1283 35.3677C86.6799 35.3949 85.7607 35.3677 85.7607 35.3677C85.7607 35.3677 87.464 40.4783 89.6623 41.21C90.1729 41.3794 91.2887 41.6003 91.7593 41.1292C92.4454 40.4436 91.9434 39.472 91.3005 39.3882C90.5719 39.2972 90.5656 40.0509 90.5656 40.0509C90.5656 40.0509 90.1456 40.0976 90.1146 39.6161C90.0504 38.6552 90.9989 38.4836 91.574 38.5301C92.5445 38.6072 93.2795 39.6174 93.1686 40.5567C93.0317 41.6583 92.3764 42.3042 91.3173 42.4806C90.9644 42.5389 90.7146 42.5714 90.3117 42.5491ZM85.6464 29.934H82.7277L82.7126 33.9685C82.7126 33.9685 84.8479 34.0176 85.824 33.9386C86.984 33.8465 88.5552 34.0008 88.5366 31.7551C88.5246 30.5146 87.5637 29.934 85.6464 29.934Z" fill="#7C3A00"/>
<path fill-rule="evenodd" clip-rule="evenodd" d="M101.878 30.2109C101.554 31.0952 101.137 32.5221 100.462 33.5635C99.4833 35.1142 98.8695 35.7433 98.0955 36.5385C98.0748 36.5588 98.0326 36.641 98.0326 36.7834L98.0543 40.8004C98.0543 41.5768 98.8833 41.5546 99.1282 41.5753L99.1302 42.1236L94.966 42.1186L94.9619 41.5753C94.9619 41.5753 96.1436 41.6652 96.1465 40.6452C96.15 39.1971 96.1775 36.6273 96.1775 36.6273C96.1775 36.6273 92.4974 30.2019 91.9 29.4991C91.7247 29.2948 91.363 29.3578 91.1692 29.3439L91.1672 28.8091H94.6918C94.6918 28.8713 94.6842 29.3286 94.6842 29.3286C94.6842 29.3286 94.011 29.2583 94.0999 29.6864C94.1579 29.9867 94.7733 31.0124 94.8955 31.217C95.6494 32.44 96.4438 33.9686 97.2003 35.2737C97.7218 34.9378 98.6454 34.0935 99.3002 33.1033C99.9548 32.1126 100.344 30.9751 100.422 30.3807C100.578 29.2277 99.3591 29.3306 99.3591 29.3306L99.3637 28.8091H103.078L103.083 29.3426C103.083 29.3426 102.225 29.2601 101.878 30.2109Z" fill="#7C3A00"/>
<path fill-rule="evenodd" clip-rule="evenodd" d="M41.472 50.6972V46.1587H42.1948L44.1753 49.6536H44.2001V46.1587H44.6524V50.6972H44.2379L41.9374 46.6487H41.9241V50.6972H41.472Z" fill="#7C3A00"/>
<path fill-rule="evenodd" clip-rule="evenodd" d="M48.5759 46.1587V46.5861H46.3567V48.1073H47.9342V48.5347H46.3567V50.2698H48.7012V50.6972H45.8535V46.1587H48.5759Z" fill="#7C3A00"/>
<path fill-rule="evenodd" clip-rule="evenodd" d="M49.1921 46.1587H49.67L50.5119 49.7791H50.525L51.4046 46.1587H51.851L52.756 49.7791H52.7687L53.5984 46.1587H54.0762L53.0016 50.6972H52.5552L51.6249 47.0261H51.6122L50.7321 50.6972H50.2857L49.1921 46.1587Z" fill="#7C3A00"/>
<path fill-rule="evenodd" clip-rule="evenodd" d="M57.6662 48.7862L56.2708 46.1587H56.8237L57.9177 48.2389L59.0117 46.1587H59.5646L58.1692 48.7862V50.6972H57.6662V48.7862Z" fill="#7C3A00"/>
<path fill-rule="evenodd" clip-rule="evenodd" d="M61.7588 46.0957C62.8718 46.0957 63.5319 46.9132 63.5319 48.4274C63.5319 49.9423 62.8718 50.76 61.7588 50.76C60.6467 50.76 59.9866 49.9423 59.9866 48.4274C59.9866 46.9132 60.6467 46.0957 61.7588 46.0957ZM61.7588 50.3323C62.5577 50.3323 63.0288 49.7163 63.0288 48.4274C63.0288 47.1393 62.5577 46.5229 61.7588 46.5229C60.9608 46.5229 60.4895 47.1393 60.4895 48.4274C60.4895 49.7163 60.9608 50.3323 61.7588 50.3323Z" fill="#7C3A00"/>
<path fill-rule="evenodd" clip-rule="evenodd" d="M64.4878 50.6972V46.1587H65.9459C66.9267 46.1587 67.4606 46.5987 67.4606 47.3527C67.4606 47.994 67.0904 48.3585 66.5558 48.5347L67.5178 50.6972H66.9701L66.0529 48.6353H64.9901V50.6972H64.4878ZM64.9901 48.2081H65.902C66.5938 48.2081 66.9583 47.9506 66.9583 47.3778C66.9583 46.7684 66.5427 46.5861 65.8957 46.5861H64.9901V48.2081Z" fill="#7C3A00"/>
<path fill-rule="evenodd" clip-rule="evenodd" d="M69.1269 50.6972H68.624V46.1587H69.1269V48.5153H69.1396L71.019 46.1587H71.6165L70.2081 47.8685L71.7858 50.6972H71.2137L69.8626 48.283L69.1269 49.1756V50.6972Z" fill="#7C3A00"/>
<path fill-rule="evenodd" clip-rule="evenodd" d="M77.1298 49.3389C76.9285 50.1819 76.4636 50.76 75.5332 50.76C74.5147 50.76 73.7983 50.0178 73.7983 48.4274C73.7983 46.9507 74.439 46.0957 75.5332 46.0957C76.3752 46.0957 76.8659 46.586 77.0671 47.4152L76.6015 47.5538C76.4385 46.9132 76.149 46.5229 75.4702 46.5229C74.8164 46.5229 74.3013 47.1269 74.3013 48.4274C74.3013 49.7412 74.8164 50.3326 75.5706 50.3326C76.2686 50.3326 76.5393 49.8045 76.6768 49.2505L77.1298 49.3389Z" fill="#7C3A00"/>
<path fill-rule="evenodd" clip-rule="evenodd" d="M78.1675 50.6972H78.6706V46.1587H78.1675V50.6972Z" fill="#7C3A00"/>
<path fill-rule="evenodd" clip-rule="evenodd" d="M81.3104 46.5863V50.6974H80.8077V46.5863H79.45V46.1587H82.6683V46.5863H81.3104Z" fill="#7C3A00"/>
<path fill-rule="evenodd" clip-rule="evenodd" d="M84.4604 48.7862L83.0647 46.1587H83.618L84.7119 48.2389L85.8057 46.1587H86.359L84.9633 48.7862V50.6972H84.4604V48.7862Z" fill="#7C3A00"/>
<path fill-rule="evenodd" clip-rule="evenodd" d="M29.2053 48.27C29.2053 48.2006 29.2608 48.144 29.33 48.144C29.3989 48.144 29.455 48.2006 29.455 48.27C29.455 48.3377 29.3989 48.3942 29.33 48.3942C29.2608 48.3942 29.2053 48.3377 29.2053 48.27Z" fill="#7C3A00"/>
<path fill-rule="evenodd" clip-rule="evenodd" d="M27.8916 48.27C27.8916 48.2006 27.947 48.144 28.016 48.144C28.0857 48.144 28.1411 48.2006 28.1411 48.27C28.1411 48.3377 28.0857 48.3942 28.016 48.3942C27.947 48.3942 27.8916 48.3377 27.8916 48.27Z" fill="#7C3A00"/>
<path fill-rule="evenodd" clip-rule="evenodd" d="M26.5771 48.27C26.5771 48.2006 26.6317 48.144 26.7016 48.144C26.7703 48.144 26.8271 48.2006 26.8271 48.27C26.8271 48.3377 26.7703 48.3942 26.7016 48.3942C26.6317 48.3942 26.5771 48.3377 26.5771 48.27Z" fill="#7C3A00"/>
<path fill-rule="evenodd" clip-rule="evenodd" d="M25.2637 48.27C25.2637 48.2006 25.3182 48.144 25.3879 48.144C25.4564 48.144 25.5134 48.2006 25.5134 48.27C25.5134 48.3377 25.4564 48.3942 25.3879 48.3942C25.3182 48.3942 25.2637 48.3377 25.2637 48.27Z" fill="#7C3A00"/>
<path fill-rule="evenodd" clip-rule="evenodd" d="M23.9027 48.27C23.9027 48.2006 23.9577 48.144 24.0273 48.144C24.095 48.144 24.1522 48.2006 24.1522 48.27C24.1522 48.3377 24.095 48.3942 24.0273 48.3942C23.9577 48.3942 23.9027 48.3377 23.9027 48.27Z" fill="#7C3A00"/>
<path fill-rule="evenodd" clip-rule="evenodd" d="M38.8094 48.5361L30.4966 48.2486L38.8094 48.0493V48.5361Z" fill="#7C3A00"/>
<path fill-rule="evenodd" clip-rule="evenodd" d="M97.738 48.3136C97.738 48.3826 97.6819 48.4389 97.6134 48.4389C97.5442 48.4389 97.4883 48.3826 97.4883 48.3136C97.4883 48.2453 97.5442 48.189 97.6134 48.189C97.6819 48.189 97.738 48.2453 97.738 48.3136Z" fill="#7C3A00"/>
<path fill-rule="evenodd" clip-rule="evenodd" d="M99.0513 48.3136C99.0513 48.3826 98.9963 48.4389 98.9269 48.4389C98.8577 48.4389 98.802 48.3826 98.802 48.3136C98.802 48.2453 98.8577 48.189 98.9269 48.189C98.9963 48.189 99.0513 48.2453 99.0513 48.3136Z" fill="#7C3A00"/>
<path fill-rule="evenodd" clip-rule="evenodd" d="M100.366 48.3136C100.366 48.3826 100.311 48.4389 100.242 48.4389C100.173 48.4389 100.116 48.3826 100.116 48.3136C100.116 48.2453 100.173 48.189 100.242 48.189C100.311 48.189 100.366 48.2453 100.366 48.3136Z" fill="#7C3A00"/>
<path fill-rule="evenodd" clip-rule="evenodd" d="M101.679 48.3136C101.679 48.3826 101.625 48.4389 101.555 48.4389C101.487 48.4389 101.43 48.3826 101.43 48.3136C101.43 48.2453 101.487 48.189 101.555 48.189C101.625 48.189 101.679 48.2453 101.679 48.3136Z" fill="#7C3A00"/>
<path fill-rule="evenodd" clip-rule="evenodd" d="M102.915 48.3136C102.915 48.3826 102.861 48.4389 102.791 48.4389C102.723 48.4389 102.666 48.3826 102.666 48.3136C102.666 48.2453 102.723 48.189 102.791 48.189C102.861 48.189 102.915 48.2453 102.915 48.3136Z" fill="#7C3A00"/>
<path fill-rule="evenodd" clip-rule="evenodd" d="M88.1338 48.0459L96.446 48.3351L88.1338 48.5335V48.0459Z" fill="#7C3A00"/>
</svg>
